<?xml version="1.0" standalone="no"?>
<!DOCTYPE svg PUBLIC "-//W3C//DTD SVG 20010904//EN"
 "http://www.w3.org/TR/2001/REC-SVG-20010904/DTD/svg10.dtd">
<svg version="1.0" xmlns="http://www.w3.org/2000/svg"
 width="1024.000000pt" height="1024.000000pt" viewBox="0 0 1024.000000 1024.000000"
 preserveAspectRatio="xMidYMid meet">

<g transform="translate(0.000000,1024.000000) scale(0.100000,-0.100000)"
fill="#003932" stroke="none">
<path d="M5047 8179 c-895 -104 -1643 -692 -1961 -1542 -40 -108 -97 -333
-118 -467 -8 -54 -13 -179 -13 -340 0 -221 3 -274 23 -395 27 -156 71 -313
138 -485 172 -442 522 -856 934 -1106 439 -267 998 -396 1474 -340 612 71
1147 345 1527 781 155 179 233 295 334 500 78 159 123 281 169 456 59 225 71
322 71 604 0 234 -2 260 -29 400 -51 270 -138 507 -271 741 -141 248 -343 487
-573 677 -335 277 -766 463 -1202 517 -96 11 -401 11 -503 -1z m452 -450 c192
-49 355 -166 465 -333 100 -150 138 -275 138 -451 0 -236 -86 -433 -261 -597
-94 -88 -179 -140 -286 -174 -402 -128 -820 44 -1001 411 -66 135 -79 195 -78
360 1 124 4 150 28 225 140 432 563 669 995 559z m-301 -1891 l2 -248 -685 0
-685 0 0 250 0 250 683 -2 682 -3 3 -247z m1192 2 l0 -250 -505 0 -505 0 0
244 c0 186 3 246 13 249 6 3 234 6 505 6 l492 1 0 -250z m360 0 l0 -250 -90 0
-90 0 0 250 0 250 90 0 90 0 0 -250z m-365 -675 l0 -240 -32 1 c-18 0 -593 1
-1278 2 l-1245 2 0 234 0 235 23 4 c12 2 587 4 1277 3 l1255 -1 0 -240z m365
5 l0 -240 -90 0 -90 0 0 234 c0 269 -11 243 108 245 l72 1 0 -240z m-362 -511
c2 -76 1 -87 -15 -91 -10 -2 -546 -3 -1190 -1 l-1173 3 0 -160 0 -160 -90 0
-90 0 0 243 c0 134 3 247 7 250 3 4 578 6 1277 5 l1271 -3 3 -86z m360 -162
l2 -248 -87 3 -88 3 -3 248 -2 248 87 -3 88 -3 3 -248z"/>
<path d="M5144 7450 c-200 -52 -348 -195 -399 -386 -21 -76 -21 -222 -1 -297
51 -187 206 -347 380 -393 206 -55 419 -1 562 141 100 99 164 255 164 400 0
149 -55 280 -164 390 -143 145 -342 198 -542 145z"/>
<path d="M2751 2787 c-16 -16 -15 -579 1 -595 12 -12 95 -16 122 -6 13 5 16
25 16 115 l0 108 122 3 c121 3 122 3 137 30 11 20 13 35 6 65 l-10 38 -122 3
-123 3 0 49 0 50 133 0 c142 0 153 3 171 54 9 26 -12 84 -32 90 -38 10 -410 4
-421 -7z"/>
<path d="M3385 2792 c-27 -2 -53 -9 -57 -15 -4 -7 -8 -89 -8 -183 0 -208 11
-254 77 -325 78 -84 203 -112 313 -70 75 29 115 64 147 128 28 58 28 59 28
256 -1 159 -4 200 -15 207 -13 8 -96 4 -127 -6 -10 -2 -13 -46 -14 -171 0
-103 -5 -181 -12 -202 -32 -90 -159 -103 -214 -22 -15 22 -19 57 -23 210 -6
209 -1 199 -95 193z"/>
<path d="M4763 2793 l-33 -4 0 -293 c0 -214 3 -295 12 -304 13 -13 106 -16
126 -4 9 6 14 53 18 158 3 82 7 150 9 152 2 2 59 -68 127 -155 l125 -158 58
-1 c98 -2 95 -12 95 316 0 266 -1 280 -19 290 -25 13 -82 13 -115 0 l-26 -10
0 -166 c0 -144 -2 -165 -14 -154 -8 6 -69 83 -135 169 -75 99 -129 161 -143
165 -23 6 -29 6 -85 -1z"/>
<path d="M5499 2788 c-18 -7 -19 -20 -19 -302 0 -259 2 -295 16 -300 27 -10
110 -6 122 6 15 15 17 584 2 593 -15 9 -98 11 -121 3z"/>
<path d="M5758 2783 c-16 -20 -14 -113 4 -125 7 -4 61 -8 121 -8 l107 0 0
-133 c0 -123 2 -137 26 -185 65 -130 215 -185 359 -131 72 27 118 67 150 132
23 48 25 66 31 242 8 231 8 231 -90 220 -34 -4 -63 -9 -66 -12 -3 -3 -7 -90
-10 -194 l-5 -189 -32 -32 c-28 -28 -39 -32 -84 -32 -47 0 -55 4 -85 37 l-34
37 0 185 c0 140 -3 187 -12 189 -7 3 -92 7 -190 10 -155 5 -178 3 -190 -11z"/>
<path d="M6732 2788 c-16 -16 -17 -560 -2 -589 9 -15 21 -19 63 -19 76 0 80 5
85 104 l5 86 31 0 c17 0 36 -4 42 -8 6 -4 37 -46 68 -94 l56 -88 59 0 c45 0
62 4 76 20 18 19 17 22 -38 104 -32 46 -57 86 -57 88 0 3 18 23 39 46 73 76
77 180 10 271 -47 65 -86 78 -270 85 -113 4 -159 2 -167 -6z m298 -157 c35
-25 39 -75 9 -107 -19 -21 -32 -24 -91 -24 l-68 0 0 74 0 75 33 4 c47 6 88 -2
117 -22z"/>
<path d="M7403 2782 c-10 -11 -13 -75 -13 -297 0 -271 1 -285 19 -295 12 -6
98 -10 209 -10 215 0 222 2 222 78 0 67 -12 72 -166 72 l-135 0 3 43 3 42 115
3 c127 3 150 13 150 64 0 64 -9 68 -139 68 -131 0 -131 0 -131 66 l0 34 140 0
c127 0 140 2 150 19 12 24 13 91 1 110 -12 19 -408 22 -428 3z"/>
<path d="M4067 2783 c-4 -3 -7 -136 -7 -294 0 -325 -4 -309 79 -309 60 0 71 7
71 49 0 20 3 60 7 89 l6 53 41 -3 c38 -3 44 -7 82 -68 73 -114 79 -118 154
-111 80 7 86 21 38 89 -19 26 -44 63 -56 83 l-22 37 39 39 c47 46 66 103 57
167 -10 62 -60 134 -115 163 -41 21 -56 23 -206 23 -89 0 -165 -3 -168 -7z
m308 -159 c31 -33 32 -70 3 -101 -19 -20 -31 -23 -92 -23 l-71 0 -3 66 c-1 36
0 69 3 74 4 6 35 10 71 10 57 0 68 -3 89 -26z"/>
<path d="M4400 1803 l0 -113 61 0 c72 0 92 9 109 50 10 24 10 33 -1 46 -7 9
-12 32 -11 52 4 57 -8 66 -88 72 l-70 5 0 -112z m101 67 c30 -17 24 -47 -12
-54 -38 -7 -49 -1 -49 28 0 37 22 46 61 26z m16 -91 c18 -18 3 -47 -28 -54
-34 -8 -49 0 -49 25 0 32 54 52 77 29z"/>
<path d="M4714 1911 c-2 -2 -4 -53 -4 -113 0 -101 1 -108 20 -108 17 0 20 7
20 41 0 37 2 40 23 34 21 -6 67 -52 67 -67 0 -5 11 -8 25 -8 30 0 31 4 4 41
l-20 29 20 26 c26 33 27 65 2 95 -15 19 -32 24 -85 29 -37 3 -69 4 -72 1z
m110 -44 c11 -8 17 -23 14 -38 -3 -21 -8 -24 -43 -24 -35 0 -40 3 -43 24 -4
24 19 51 43 51 6 0 19 -6 29 -13z"/>
<path d="M5357 1913 c-11 -10 -8 -223 2 -223 5 0 17 -3 26 -7 16 -5 17 1 13
65 l-4 71 76 -72 75 -72 3 114 c3 111 -2 130 -30 131 -5 0 -8 -29 -8 -65 0
-36 -4 -65 -8 -65 -5 0 -37 29 -71 65 -69 71 -65 68 -74 58z"/>
<path d="M5047 1807 c-26 -58 -47 -107 -47 -111 0 -17 40 -3 54 19 14 21 24
25 61 25 39 0 47 -4 57 -25 11 -24 44 -43 55 -31 7 7 -17 70 -60 156 -48 98
-62 94 -120 -33z m93 -24 c0 -7 -11 -13 -25 -13 -28 0 -31 13 -14 57 l11 28
14 -30 c7 -16 13 -36 14 -42z"/>
<path d="M5690 1883 c0 -16 3 -65 7 -110 l6 -83 56 0 c37 0 66 6 87 19 63 38
70 128 13 175 -26 22 -40 26 -100 26 -69 0 -69 0 -69 -27z m138 -29 c27 -18
30 -69 6 -102 -12 -18 -24 -22 -52 -20 l-37 3 -3 68 -3 67 33 0 c19 0 44 -7
56 -16z"/>
<path d="M6042 1887 c-40 -43 -18 -90 48 -101 43 -7 54 -32 25 -56 -12 -10
-20 -9 -41 4 -20 14 -28 15 -40 5 -24 -19 -16 -34 24 -45 49 -13 95 -1 111 30
26 48 -3 87 -74 98 -32 5 -26 42 8 46 15 2 27 -1 27 -7 0 -19 19 -12 31 10 14
28 -1 39 -57 39 -30 0 -46 -6 -62 -23z"/>
</g>
</svg>
